# This file uses centimeters as units for non-parametric coordinates.

mtllib chair_black.mtl
g default
v -2.000000 -0.500000 2.000000
v -1.595064 -0.500000 2.000000
v 1.595064 -0.500000 2.000000
v 2.000000 -0.500000 2.000000
v -2.000000 0.500000 2.000000
v -1.595064 0.500000 2.000000
v 1.692024 0.500000 2.000000
v 1.946140 0.500000 2.000000
v -2.000000 0.249922 1.549570
v -1.595064 0.367408 1.549570
v 1.595064 0.367408 1.549570
v 2.000000 0.500000 1.549570
v -2.000000 0.249922 -1.549571
v -1.595064 0.367408 -1.549571
v 1.595064 0.367408 -1.549571
v 2.000000 0.500000 -1.549571
v -2.000000 0.500000 -2.000000
v -1.595064 0.500000 -2.000000
v 1.692024 0.500000 -2.000000
v 1.946140 0.500000 -2.000000
v -2.000000 -0.500000 -2.000000
v -1.595064 -0.500000 -2.000000
v 1.595064 -0.500000 -2.000000
v 2.000000 -0.500000 -2.000000
v -2.000000 -0.249922 -1.549570
v -1.595064 -0.290711 -1.549570
v 1.595064 -0.290711 -1.549570
v 2.000000 -0.500000 -1.549570
v -2.000000 -0.249922 1.549571
v -1.595064 -0.290711 1.549571
v 1.595064 -0.290711 1.549571
v 2.000000 -0.500000 1.549571
v -1.680215 -3.250203 -1.673746
v -1.443513 -3.250203 -1.673746
v -1.443513 -3.250203 -1.410452
v -1.680215 -3.250203 -1.410452
v 1.457249 -3.250203 -1.658467
v 1.666478 -3.250203 -1.658467
v 1.666478 -3.250203 -1.425731
v 1.457249 -3.250203 -1.425731
v -1.677125 -3.250203 1.413888
v -1.446603 -3.250203 1.413888
v -1.446603 -3.250203 1.670310
v -1.677125 -3.250203 1.670310
v 1.450152 -3.250203 1.417837
v 1.673576 -3.250203 1.417837
v 1.673576 -3.250203 1.666362
v 1.450152 -3.250203 1.666362
v 1.572520 2.024425 1.564396
v 1.677239 3.521925 1.564396
v 2.071957 4.898836 2.000000
v 1.822283 1.949796 1.564396
v 1.916585 3.385887 1.564396
v 2.138262 4.762797 2.000000
v 1.802633 1.949796 1.212071
v 1.952904 3.385887 1.212071
v 2.306148 4.762797 1.549570
v 1.404634 2.024425 1.212071
v 1.571504 3.521925 1.212071
v 2.200492 4.898836 1.549570
v 1.802633 1.949796 -1.212071
v 1.952904 3.385887 -1.212071
v 2.306148 4.762797 -1.549571
v 1.404634 2.024425 -1.212071
v 1.571503 3.521924 -1.212071
v 2.200492 4.898835 -1.549571
v 1.822283 1.949796 -1.564396
v 1.916585 3.385887 -1.564396
v 2.138262 4.762797 -2.000000
v 1.572520 2.024425 -1.564396
v 1.677239 3.521924 -1.564396
v 2.071957 4.898835 -2.000000
vt 0.375000 0.000000
vt 0.458333 0.000000
vt 0.541667 0.000000
vt 0.625000 0.000000
vt 0.375000 0.250000
vt 0.458333 0.250000
vt 0.541667 0.250000
vt 0.625000 0.250000
vt 0.375000 0.333333
vt 0.458333 0.333333
vt 0.541667 0.333333
vt 0.625000 0.333333
vt 0.375000 0.416667
vt 0.458333 0.416667
vt 0.541667 0.416667
vt 0.625000 0.416667
vt 0.375000 0.500000
vt 0.458333 0.500000
vt 0.541667 0.500000
vt 0.625000 0.500000
vt 0.375000 0.750000
vt 0.458333 0.750000
vt 0.541667 0.750000
vt 0.625000 0.750000
vt 0.375000 0.833333
vt 0.458333 0.833333
vt 0.541667 0.833333
vt 0.625000 0.833333
vt 0.375000 0.916667
vt 0.458333 0.916667
vt 0.541667 0.916667
vt 0.625000 0.916667
vt 0.375000 1.000000
vt 0.458333 1.000000
vt 0.541667 1.000000
vt 0.625000 1.000000
vt 0.875000 0.000000
vt 0.791667 0.000000
vt 0.708333 0.000000
vt 0.875000 0.250000
vt 0.791667 0.250000
vt 0.708333 0.250000
vt 0.125000 0.000000
vt 0.208333 0.000000
vt 0.291667 0.000000
vt 0.125000 0.250000
vt 0.208333 0.250000
vt 0.291667 0.250000
vt 0.375000 0.750000
vt 0.458333 0.750000
vt 0.458333 0.833333
vt 0.375000 0.833333
vt 0.541667 0.750000
vt 0.625000 0.750000
vt 0.625000 0.833333
vt 0.541667 0.833333
vt 0.375000 0.916667
vt 0.458333 0.916667
vt 0.458333 1.000000
vt 0.375000 1.000000
vt 0.541667 0.916667
vt 0.625000 0.916667
vt 0.625000 1.000000
vt 0.541667 1.000000
vt 0.541667 0.250000
vt 0.541667 0.250000
vt 0.541667 0.250000
vt 0.625000 0.250000
vt 0.625000 0.250000
vt 0.625000 0.250000
vt 0.625000 0.333333
vt 0.625000 0.333333
vt 0.625000 0.333333
vt 0.541667 0.333333
vt 0.541667 0.333333
vt 0.541667 0.333333
vt 0.625000 0.416667
vt 0.625000 0.416667
vt 0.625000 0.416667
vt 0.541667 0.416667
vt 0.541667 0.416667
vt 0.541667 0.416667
vt 0.625000 0.500000
vt 0.625000 0.500000
vt 0.625000 0.500000
vt 0.541667 0.500000
vt 0.541667 0.500000
vt 0.541667 0.500000
vn 0.000000 -0.079645 0.996823
vn 0.000000 -0.023815 0.999716
vn 0.000000 0.000000 1.000000
vn 0.000000 0.000000 1.000000
vn 0.000000 -0.023337 0.999728
vn 0.004507 0.030434 0.999527
vn 0.000000 -0.086450 0.996256
vn 0.022025 0.148706 0.988636
vn -0.132345 0.912307 -0.387533
vn -0.015403 0.955351 -0.295072
vn -0.030597 0.998736 -0.039879
vn -0.263174 0.963555 -0.047979
vn 0.000000 0.959300 -0.282388
vn 0.000000 0.999117 -0.042018
vn 0.814401 0.514725 0.267973
vn 0.814401 0.514725 0.267973
vn 0.795611 0.605106 0.029163
vn 0.796935 0.602970 0.036362
vn -0.030597 0.998736 0.039879
vn -0.263175 0.963554 0.047979
vn 0.000000 0.999117 0.042018
vn 0.795610 0.605106 -0.029163
vn 0.796935 0.602970 -0.036362
vn -0.015403 0.955351 0.295072
vn -0.132345 0.912306 0.387533
vn 0.000000 0.959300 0.282388
vn 0.814399 0.514728 -0.267973
vn 0.814399 0.514727 -0.267973
vn 0.000000 0.000000 -1.000000
vn 0.000000 0.000000 -1.000000
vn 0.000000 -0.023764 -0.999718
vn 0.000000 -0.079092 -0.996867
vn 0.004507 0.030434 -0.999527
vn 0.000000 -0.023421 -0.999726
vn 0.022025 0.148706 -0.988636
vn 0.000000 -0.087863 -0.996133
vn 0.000000 -1.000000 0.000000
vn 0.000000 -1.000000 0.000000
vn 0.000000 -1.000000 0.000000
vn 0.000000 -1.000000 0.000000
vn 0.000000 -0.906885 0.421378
vn 0.000000 -0.906885 0.421378
vn -0.051425 -0.997273 0.052935
vn -0.010035 -0.998544 0.053002
vn 0.000000 -1.000000 0.000000
vn 0.000000 -1.000000 0.000000
vn 0.000000 -1.000000 0.000000
vn 0.000000 -1.000000 0.000000
vn -0.100221 -0.994965 0.000000
vn -0.010035 -0.998544 -0.053002
vn -0.100221 -0.994965 0.000000
vn -0.051425 -0.997273 -0.052935
vn -0.459145 -0.888361 0.000000
vn -0.459145 -0.888361 0.000000
vn 0.000000 -1.000000 0.000000
vn 0.000000 -1.000000 0.000000
vn 0.000000 -1.000000 0.000000
vn 0.000000 -1.000000 0.000000
vn 0.000000 -0.906885 -0.421378
vn 0.000000 -0.906885 -0.421378
vn 0.000000 -1.000000 0.000000
vn 0.000000 -1.000000 0.000000
vn 0.000000 -1.000000 0.000000
vn 0.000000 -1.000000 0.000000
vn 0.999712 -0.023253 -0.005962
vn 0.997312 -0.070376 -0.020401
vn 0.995835 0.075765 -0.050711
vn 0.997304 0.073027 -0.007188
vn 0.999713 -0.023210 0.005930
vn 0.997304 0.073027 0.007188
vn 0.997381 -0.069494 0.020071
vn 0.995835 0.075765 0.050711
vn -0.995270 -0.091684 0.032124
vn -0.999513 -0.029461 0.010323
vn -1.000000 -0.000000 0.000000
vn -1.000000 0.000000 0.000000
vn -0.999510 -0.029513 -0.010442
vn -1.000000 -0.000000 0.000000
vn -0.995185 -0.092398 -0.032690
vn -1.000000 0.000000 0.000000
vn 0.000000 -0.117803 -0.993037
vn 0.000000 -0.117803 -0.993037
vn 0.998544 0.051771 -0.015181
vn 0.998544 0.051771 -0.015181
vn 0.998544 0.051771 -0.015181
vn 0.998544 0.051771 -0.015181
vn 0.002979 0.046870 0.998897
vn 0.002979 0.046870 0.998897
vn 0.002979 0.046870 0.998897
vn 0.002979 0.046870 0.998897
vn -0.993497 -0.107450 0.037649
vn -0.993497 -0.107450 0.037649
vn 0.000000 -0.123238 -0.992377
vn 0.000000 -0.123238 -0.992377
vn 0.992727 -0.120389 0.000000
vn 0.992727 -0.120389 0.000000
vn 0.014364 0.042150 0.999008
vn 0.014364 0.042150 0.999008
vn 0.014364 0.042150 0.999008
vn 0.014364 0.042150 0.999008
vn -0.998789 0.047041 -0.014411
vn -0.998789 0.047041 -0.014411
vn -0.998789 0.047041 -0.014411
vn -0.998789 0.047041 -0.014411
vn 0.002934 0.045717 -0.998950
vn 0.002934 0.045717 -0.998950
vn 0.002934 0.045717 -0.998950
vn 0.002934 0.045717 -0.998950
vn 0.998601 0.050707 0.015014
vn 0.998601 0.050707 0.015014
vn 0.998601 0.050707 0.015014
vn 0.998601 0.050707 0.015014
vn 0.000000 -0.119026 0.992891
vn 0.000000 -0.119026 0.992891
vn -0.993362 -0.108445 -0.038367
vn -0.993362 -0.108445 -0.038367
vn 0.014942 0.044859 -0.998882
vn 0.014942 0.044859 -0.998882
vn 0.014942 0.044859 -0.998882
vn 0.014942 0.044859 -0.998882
vn 0.993030 -0.117864 0.000000
vn 0.993030 -0.117864 0.000000
vn 0.000000 -0.120431 0.992722
vn 0.000000 -0.120431 0.992722
vn -0.998665 0.049485 0.014817
vn -0.998665 0.049485 0.014817
vn -0.998665 0.049485 0.014817
vn -0.998665 0.049485 0.014817
vn 0.025503 0.172190 0.984734
vn 0.017663 0.119252 0.992707
vn -0.068614 -0.077081 0.994661
vn -0.120626 -0.135512 0.983405
vn -0.221421 -0.248744 0.942921
vn -0.221421 -0.248744 0.942921
vn 0.999527 0.030553 0.003643
vn 0.998811 0.034379 0.034551
vn 0.982639 -0.184926 0.014911
vn 0.970604 -0.189100 0.148892
vn 0.967052 -0.251665 0.038414
vn 0.935268 -0.262049 0.237915
vn -0.993868 -0.100748 0.045570
vn -0.948757 -0.015732 0.315614
vn -0.941984 0.025487 0.334687
vn -0.999113 -0.015315 0.039223
vn -0.958749 0.243870 0.146039
vn -0.960028 0.279106 0.021120
vn -0.934543 0.354859 -0.026543
vn -0.913589 0.406620 -0.003949
vn 0.999527 0.030553 -0.003643
vn 0.982639 -0.184926 -0.014911
vn 0.967052 -0.251665 -0.038414
vn -0.993868 -0.100748 -0.045570
vn -0.999113 -0.015315 -0.039223
vn -0.960028 0.279106 -0.021120
vn -0.913589 0.406620 0.003948
vn 0.998811 0.034379 -0.034551
vn 0.970604 -0.189100 -0.148892
vn 0.935268 -0.262050 -0.237915
vn 0.017662 0.119252 -0.992707
vn 0.025503 0.172190 -0.984734
vn -0.120627 -0.135512 -0.983405
vn -0.068614 -0.077081 -0.994661
vn -0.221421 -0.248744 -0.942921
vn -0.221421 -0.248744 -0.942921
vn -0.948757 -0.015732 -0.315614
vn -0.941984 0.025487 -0.334688
vn -0.958749 0.243870 -0.146039
vn -0.934543 0.354859 0.026543
s 1
g pCube1
usemtl lambert2SG
f 1/1/1 2/2/2 6/6/3 5/5/4
f 2/2/2 3/3/5 7/7/6 6/6/3
f 3/3/5 4/4/7 8/8/8 7/7/6
s 2
f 5/5/9 6/6/10 10/10/11 9/9/12
f 6/6/10 7/7/13 11/11/14 10/10/11
s 3
f 51/67/15 54/70/16 57/73/17 60/76/18
s 2
f 9/9/12 10/10/11 14/14/19 13/13/20
f 10/10/11 11/11/14 15/15/21 14/14/19
s 3
f 60/76/18 57/73/17 63/79/22 66/82/23
s 2
f 13/13/20 14/14/19 18/18/24 17/17/25
f 14/14/19 15/15/21 19/19/26 18/18/24
s 3
f 66/82/23 63/79/22 69/85/27 72/88/28
s 4
f 17/17/29 18/18/30 22/22/31 21/21/32
f 18/18/30 19/19/33 23/23/34 22/22/31
f 19/19/33 20/20/35 24/24/36 23/23/34
s off
f 33/49/37 34/50/38 35/51/39 36/52/40
s 5
f 22/22/41 23/23/42 27/27/43 26/26/44
s off
f 37/53/45 38/54/46 39/55/47 40/56/48
s 5
f 25/25/49 26/26/44 30/30/50 29/29/51
f 26/26/44 27/27/43 31/31/52 30/30/50
f 27/27/43 28/28/53 32/32/54 31/31/52
s off
f 41/57/55 42/58/56 43/59/57 44/60/58
s 5
f 30/30/50 31/31/52 3/35/59 2/34/60
s off
f 45/61/61 46/62/62 47/63/63 48/64/64
s 6
f 28/38/65 24/37/66 20/40/67 16/41/68
f 32/39/69 28/38/65 16/41/68 12/42/70
f 4/4/71 32/39/69 12/42/70 8/8/72
s 7
f 21/43/73 25/44/74 13/47/75 17/46/76
f 25/44/74 29/45/77 9/48/78 13/47/75
f 29/45/77 1/1/79 5/5/80 9/48/78
s 4
f 21/21/32 22/22/31 34/50/81 33/49/82
s off
f 22/22/83 26/26/84 35/51/85 34/50/86
f 26/26/87 25/25/88 36/52/89 35/51/90
s 7
f 25/25/74 21/21/73 33/49/91 36/52/92
s 4
f 23/23/34 24/24/36 38/54/93 37/53/94
s 6
f 24/24/66 28/28/65 39/55/95 38/54/96
s off
f 28/28/97 27/27/98 40/56/99 39/55/100
f 27/27/101 23/23/102 37/53/103 40/56/104
f 29/29/105 30/30/106 42/58/107 41/57/108
f 30/30/109 2/34/110 43/59/111 42/58/112
s 1
f 2/34/2 1/33/1 44/60/113 43/59/114
s 7
f 1/33/79 29/29/77 41/57/115 44/60/116
s off
f 31/31/117 32/32/118 46/62/119 45/61/120
s 6
f 32/32/69 4/36/71 47/63/121 46/62/122
s 1
f 4/36/7 3/35/5 48/64/123 47/63/124
s off
f 3/35/125 31/31/126 45/61/127 48/64/128
s 1
f 7/7/6 8/8/8 52/68/129 49/65/130
f 49/65/130 52/68/129 53/69/131 50/66/132
f 50/66/132 53/69/131 54/70/133 51/67/134
s 6
f 8/8/72 12/12/70 55/71/135 52/68/136
f 52/68/136 55/71/135 56/72/137 53/69/138
f 53/69/138 56/72/137 57/73/139 54/70/140
s 8
f 11/11/141 7/7/142 49/65/143 58/74/144
f 58/74/144 49/65/143 50/66/145 59/75/146
f 59/75/146 50/66/145 51/67/147 60/76/148
s 6
f 12/12/70 16/16/68 61/77/149 55/71/135
f 55/71/135 61/77/149 62/78/150 56/72/137
f 56/72/137 62/78/150 63/79/151 57/73/139
s 8
f 15/15/152 11/11/141 58/74/144 64/80/153
f 64/80/153 58/74/144 59/75/146 65/81/154
f 65/81/154 59/75/146 60/76/148 66/82/155
s 6
f 16/16/68 20/20/67 67/83/156 61/77/149
f 61/77/149 67/83/156 68/84/157 62/78/150
f 62/78/150 68/84/157 69/85/158 63/79/151
s 4
f 20/20/35 19/19/33 70/86/159 67/83/160
f 67/83/160 70/86/159 71/87/161 68/84/162
f 68/84/162 71/87/161 72/88/163 69/85/164
s 8
f 19/19/165 15/15/152 64/80/153 70/86/166
f 70/86/166 64/80/153 65/81/154 71/87/167
f 71/87/167 65/81/154 66/82/155 72/88/168
