# This file uses centimeters as units for non-parametric coordinates.

mtllib chair_yellow.mtl
g default
v -2.500000 -2.030323 26.521515
v -2.061474 -2.030323 26.521515
v 2.061474 -2.030323 26.521515
v 2.500000 -2.030323 26.521515
v -2.764484 -1.780323 26.785999
v -2.279565 -1.780323 26.785999
v 2.279565 -1.780323 26.785999
v 2.764484 -1.780323 26.785999
v -2.500000 -1.530323 26.521515
v -2.061474 -1.530323 26.521515
v 2.061474 -1.530323 26.521515
v 2.500000 -1.530323 26.521515
v -2.500000 -1.530323 26.089307
v -2.061474 -1.604605 26.089307
v 2.061474 -1.604605 26.089307
v 2.500000 -1.530323 26.089307
v -2.500000 -1.530323 21.953722
v -2.061474 -1.604605 21.953722
v 2.061474 -1.604605 21.953722
v 2.500000 -1.530323 21.953722
v -2.500000 -1.530323 21.521515
v 2.500000 -1.530323 21.521515
v -2.764484 -1.780323 21.257030
v -2.279565 -1.780323 21.257030
v 2.279565 -1.780323 21.257030
v 2.764484 -1.780323 21.257030
v -2.500000 -2.030323 21.521515
v -2.061474 -2.030323 21.521515
v 2.061474 -2.030323 21.521515
v 2.500000 -2.030323 21.521515
v -2.500000 -2.030323 21.953722
v -2.061474 -2.030323 21.953722
v 2.061474 -2.030323 21.953722
v 2.500000 -2.030323 21.953722
v -2.500000 -2.030323 26.089308
v -2.061474 -2.030323 26.089308
v 2.061474 -2.030323 26.089308
v 2.500000 -2.030323 26.089308
v 2.764484 -1.780323 21.734961
v 2.764484 -1.780323 26.308068
v -2.764484 -1.780323 21.734961
v -2.764484 -1.780323 26.308068
v -2.500000 -1.530323 21.953722
v -2.061474 -1.604605 21.953722
v -2.061474 -1.530323 21.521515
v -2.500000 -1.530323 21.521515
v 2.061474 -1.604605 21.953722
v 2.061474 -1.530323 21.521515
v 2.500000 -1.530323 21.953722
v 2.500000 -1.530323 21.521515
v -2.279565 -1.780323 21.257030
v -2.764484 -1.780323 21.257030
v 2.279565 -1.780323 21.257030
v 2.764484 -1.780323 21.257030
v -2.061474 3.725342 21.126075
v 2.061474 3.725342 21.126075
v 2.061474 3.799624 20.693867
v -2.061474 3.799624 20.693867
v -1.682111 -1.114184 21.801686
v 1.682111 -1.114184 21.801686
v 1.682111 3.234920 21.126347
v -1.682111 3.234920 21.126347
v -2.648681 -0.100668 21.792809
v -2.145031 -0.147357 21.735033
v -2.145031 0.235497 21.521154
v -2.648681 0.235497 21.521154
v 2.145031 -0.147357 21.735033
v 2.648681 -0.100668 21.792809
v 2.648681 0.235497 21.521154
v 2.145031 0.235497 21.521154
v -2.446019 0.410426 25.101211
v -1.942369 0.465629 25.051509
v -1.942369 0.699622 25.422410
v -2.446019 0.699622 25.422410
v 1.942369 0.465629 25.051509
v 2.446019 0.410426 25.101211
v 2.446019 0.699622 25.422410
v 1.942369 0.699622 25.422410
v -2.500000 -5.877841 21.521515
v -2.061474 -5.877841 21.521515
v -2.061474 -5.877841 21.953722
v -2.500000 -5.877841 21.953722
v 2.061474 -5.877841 21.521515
v 2.500000 -5.877841 21.521515
v 2.500000 -5.877841 21.953722
v 2.061474 -5.877841 21.953722
v -2.500000 -5.877841 26.089308
v -2.061474 -5.877841 26.089308
v -2.061474 -5.877841 26.521515
v -2.500000 -5.877841 26.521515
v 2.061474 -5.877841 26.089308
v 2.500000 -5.877841 26.089308
v 2.500000 -5.877841 26.521515
v 2.061474 -5.877841 26.521515
vt 0.375000 0.000000
vt 0.458333 0.000000
vt 0.541667 0.000000
vt 0.625000 0.000000
vt 0.375000 0.125000
vt 0.458333 0.125000
vt 0.541667 0.125000
vt 0.625000 0.125000
vt 0.375000 0.250000
vt 0.458333 0.250000
vt 0.541667 0.250000
vt 0.625000 0.250000
vt 0.375000 0.333333
vt 0.458333 0.333333
vt 0.541667 0.333333
vt 0.625000 0.333333
vt 0.375000 0.416667
vt 0.458333 0.416667
vt 0.541667 0.416667
vt 0.625000 0.416667
vt 0.375000 0.500000
vt 0.458333 0.500000
vt 0.541667 0.500000
vt 0.625000 0.500000
vt 0.375000 0.625000
vt 0.458333 0.625000
vt 0.541667 0.625000
vt 0.625000 0.625000
vt 0.375000 0.750000
vt 0.458333 0.750000
vt 0.541667 0.750000
vt 0.625000 0.750000
vt 0.375000 0.833333
vt 0.458333 0.833333
vt 0.541667 0.833333
vt 0.625000 0.833333
vt 0.375000 0.916667
vt 0.458333 0.916667
vt 0.541667 0.916667
vt 0.625000 0.916667
vt 0.375000 1.000000
vt 0.458333 1.000000
vt 0.541667 1.000000
vt 0.625000 1.000000
vt 0.875000 0.000000
vt 0.791667 0.000000
vt 0.708333 0.000000
vt 0.875000 0.125000
vt 0.791667 0.125000
vt 0.708333 0.125000
vt 0.875000 0.250000
vt 0.791667 0.250000
vt 0.708333 0.250000
vt 0.125000 0.000000
vt 0.208333 0.000000
vt 0.291667 0.000000
vt 0.125000 0.125000
vt 0.208333 0.125000
vt 0.291667 0.125000
vt 0.125000 0.250000
vt 0.208333 0.250000
vt 0.291667 0.250000
vt 0.375000 0.416667
vt 0.458333 0.416667
vt 0.375000 0.500000
vt 0.541667 0.416667
vt 0.625000 0.416667
vt 0.625000 0.500000
vt 0.458333 0.625000
vt 0.375000 0.625000
vt 0.541667 0.625000
vt 0.625000 0.625000
vt 0.458333 0.416667
vt 0.541667 0.416667
vt 0.541667 0.500000
vt 0.458333 0.500000
vt 0.458333 0.416667
vt 0.541667 0.416667
vt 0.541667 0.416667
vt 0.458333 0.416667
vt 0.375000 0.416667
vt 0.458333 0.416667
vt 0.458333 0.500000
vt 0.375000 0.500000
vt 0.541667 0.416667
vt 0.625000 0.416667
vt 0.625000 0.500000
vt 0.541667 0.500000
vt 0.375000 0.416667
vt 0.458333 0.416667
vt 0.458333 0.500000
vt 0.375000 0.500000
vt 0.541667 0.416667
vt 0.625000 0.416667
vt 0.625000 0.500000
vt 0.541667 0.500000
vt 0.375000 0.750000
vt 0.458333 0.750000
vt 0.458333 0.833333
vt 0.375000 0.833333
vt 0.541667 0.750000
vt 0.625000 0.750000
vt 0.625000 0.833333
vt 0.541667 0.833333
vt 0.375000 0.916667
vt 0.458333 0.916667
vt 0.458333 1.000000
vt 0.375000 1.000000
vt 0.541667 0.916667
vt 0.625000 0.916667
vt 0.625000 1.000000
vt 0.541667 1.000000
vn 0.000000 -0.726726 0.686927
vn 0.000000 -0.726726 0.686927
vn 0.000000 0.000000 1.000000
vn 0.000000 0.000000 1.000000
vn 0.000000 -0.726726 0.686927
vn 0.000000 0.000000 1.000000
vn 0.000000 -0.726726 0.686927
vn 0.000000 0.000000 1.000000
vn 0.000000 0.635998 0.771690
vn 0.000000 0.494637 0.869100
vn 0.000000 0.635998 0.771690
vn 0.000000 0.494637 0.869100
vn 0.000000 0.985550 -0.169384
vn 0.000000 0.985550 -0.169384
vn -0.014876 0.999779 -0.014830
vn 0.014876 0.999779 -0.014830
vn 0.167012 0.985955 0.000000
vn 0.016283 0.999867 0.000000
vn 0.167012 0.985955 0.000000
vn -0.016283 0.999867 0.000000
vn -0.167012 0.985955 0.000000
vn -0.167012 0.985955 0.000000
vn 0.000000 0.985550 0.169383
vn 0.000000 0.985550 0.169383
vn 0.000000 0.985550 0.169383
vn 0.000000 0.985550 0.169383
vn 0.000000 0.162367 -0.986730
vn 0.000000 0.569721 -0.821838
vn 0.000000 0.726726 -0.686927
vn 0.000000 0.726726 -0.686927
vn 0.000000 0.569721 -0.821838
vn 0.000000 0.726726 -0.686927
vn 0.000000 0.162367 -0.986730
vn 0.000000 0.726726 -0.686927
vn 0.000000 -0.726727 -0.686927
vn 0.000000 -0.726727 -0.686927
vn 0.000000 -0.726727 -0.686927
vn 0.000000 -0.726727 -0.686927
vn 0.000000 -0.726727 -0.686927
vn 0.000000 -0.726727 -0.686927
vn 0.000000 -0.726727 -0.686927
vn 0.000000 -0.726727 -0.686927
vn 0.000000 -1.000000 0.000000
vn 0.000000 -1.000000 0.000000
vn 0.000000 -1.000000 0.000000
vn 0.000000 -1.000000 0.000000
vn 0.000000 -1.000000 0.000000
vn 0.000000 -1.000000 0.000000
vn 0.000000 -1.000000 0.000000
vn 0.000000 -1.000000 0.000000
vn 0.000000 -1.000000 0.000000
vn 0.000000 -1.000000 0.000000
vn 0.000000 -1.000000 0.000000
vn 0.000000 -1.000000 0.000000
vn 0.000000 -1.000000 0.000000
vn 0.000000 -1.000000 0.000000
vn 0.000000 -1.000000 0.000000
vn 0.000000 -1.000000 0.000000
vn 0.000000 -1.000000 0.000000
vn 0.000000 -1.000000 0.000000
vn 0.000000 -1.000000 0.000000
vn 0.000000 -1.000000 0.000000
vn 0.000000 -1.000000 0.000000
vn 0.000000 -1.000000 0.000000
vn 0.000000 -1.000000 0.000000
vn 0.000000 -1.000000 0.000000
vn 0.000000 -1.000000 0.000000
vn 0.000000 -1.000000 0.000000
vn 0.000000 -1.000000 0.000000
vn 0.000000 -1.000000 0.000000
vn 0.686927 -0.726726 0.000000
vn 0.686927 -0.726726 0.000000
vn 1.000000 0.000001 0.000000
vn 1.000000 -0.000000 0.000000
vn 0.686927 -0.726726 0.000000
vn 1.000000 -0.000000 0.000000
vn 0.686927 -0.726726 0.000000
vn 1.000000 0.000000 0.000000
vn 0.686927 0.726726 0.000000
vn 0.686927 0.726726 0.000000
vn 0.686927 0.726726 0.000000
vn 0.686927 0.726726 0.000000
vn -0.686927 -0.726727 0.000000
vn -0.686927 -0.726726 0.000000
vn -1.000000 -0.000000 0.000000
vn -1.000000 0.000001 0.000000
vn -0.686927 -0.726726 0.000000
vn -1.000000 -0.000000 0.000000
vn -0.686927 -0.726726 0.000000
vn -1.000000 0.000000 0.000000
vn -0.686927 0.726726 0.000000
vn -0.686927 0.726726 0.000000
vn -0.686927 0.726726 0.000000
vn -0.686927 0.726726 0.000000
vn 0.000000 0.000000 0.000000
vn 0.000000 0.000000 0.000000
vn 0.000000 0.000000 0.000000
vn 0.000000 0.000000 0.000000
vn 0.000000 0.000000 0.000000
vn 0.000000 0.000000 0.000000
vn 0.000000 0.000000 0.000000
vn 0.000000 0.000000 0.000000
vn 0.000000 0.000000 0.000000
vn 0.000000 0.000000 0.000000
vn 0.000000 0.000000 0.000000
vn 0.000000 0.000000 0.000000
vn 0.000000 0.000000 0.000000
vn 0.000000 0.000000 0.000000
vn 0.000000 0.000000 0.000000
vn 0.000000 0.000000 0.000000
vn 0.000000 0.000000 0.000000
vn 0.000000 0.000000 0.000000
vn 0.000000 0.000000 0.000000
vn 0.000000 0.000000 0.000000
vn 0.000000 0.000000 0.000000
vn 0.000000 0.000000 0.000000
vn 0.000000 0.000000 0.000000
vn 0.000000 0.000000 0.000000
vn 0.000000 0.000000 0.000000
vn 0.000000 0.000000 0.000000
vn 0.000000 0.000000 0.000000
vn 0.000000 0.000000 0.000000
vn 0.000000 0.000000 0.000000
vn 0.000000 0.000000 0.000000
vn 0.000000 0.000000 0.000000
vn 0.000000 0.000000 0.000000
vn 0.000000 0.000000 0.000000
vn 0.000000 0.000000 0.000000
vn 0.000000 0.000000 0.000000
vn 0.000000 0.000000 0.000000
vn 0.000000 0.000000 0.000000
vn 0.000000 0.000000 0.000000
vn 0.000000 0.000000 0.000000
vn 0.000000 0.000000 0.000000
vn 0.000000 0.153444 0.988157
vn 0.000000 0.153444 0.988157
vn 0.000000 0.153444 0.988157
vn 0.000000 0.153444 0.988157
vn 1.000000 0.000000 0.000000
vn 1.000000 0.000000 0.000000
vn 1.000000 0.000000 0.000000
vn 1.000000 0.000000 0.000000
vn 0.000000 -0.153444 -0.988157
vn 0.000000 -0.153444 -0.988157
vn 0.000000 -0.153444 -0.988157
vn 0.000000 -0.153444 -0.988157
vn -1.000000 0.000000 0.000000
vn -1.000000 0.000000 0.000000
vn -1.000000 0.000000 0.000000
vn -1.000000 0.000000 0.000000
vn 0.000000 0.296108 0.955154
vn 0.000000 0.296108 0.955154
vn 0.000000 0.296108 0.955154
vn 0.000000 0.296108 0.955154
vn -0.193904 0.150531 0.969403
vn -0.193904 0.150531 0.969403
vn -0.193904 0.150531 0.969403
vn -0.193904 0.150531 0.969403
vn 0.000000 0.000555 1.000000
vn 0.000000 0.000555 1.000000
vn 0.000000 0.000555 1.000000
vn 0.000000 0.000555 1.000000
vn 0.193904 0.150531 0.969403
vn 0.193904 0.150531 0.969403
vn 0.193904 0.150531 0.969403
vn 0.193904 0.150531 0.969403
vn 0.078042 0.136141 0.987611
vn 0.078042 0.136141 0.987611
vn 0.078042 0.136141 0.987611
vn 0.078042 0.136141 0.987611
vn 0.997781 0.054348 0.038454
vn 0.997781 0.054348 0.038454
vn 0.998881 0.021449 -0.042143
vn 0.999340 0.030836 -0.019220
vn 0.000000 -0.000204 -1.000000
vn 0.000000 -0.000204 -1.000000
vn -0.994463 -0.094828 -0.045290
vn -0.994463 -0.094828 -0.045290
vn -0.999086 -0.038621 0.018329
vn -0.999143 -0.027178 0.031226
vn -0.078041 0.136140 0.987611
vn -0.078041 0.136140 0.987611
vn -0.078041 0.136140 0.987611
vn -0.078041 0.136140 0.987611
vn 0.994463 -0.094828 -0.045290
vn 0.994463 -0.094828 -0.045290
vn 0.999143 -0.027178 0.031226
vn 0.999086 -0.038621 0.018329
vn 0.000000 -0.000204 -1.000000
vn 0.000000 -0.000204 -1.000000
vn -0.997781 0.054348 0.038454
vn -0.997781 0.054348 0.038454
vn -0.999340 0.030836 -0.019220
vn -0.998881 0.021449 -0.042144
vn 0.026011 -0.985836 0.165681
vn 0.026011 -0.985836 0.165681
vn 0.026011 -0.985836 0.165681
vn 0.026011 -0.985836 0.165681
vn 0.999497 -0.031706 -0.000522
vn 0.999510 -0.007697 -0.030341
vn 0.000000 0.992998 -0.118135
vn 0.000000 0.992998 -0.118135
vn 0.000000 0.992998 -0.118135
vn 0.000000 0.992998 -0.118135
vn -0.999463 0.005341 0.032337
vn -0.999809 0.012231 0.015228
vn -0.026011 -0.985836 0.165681
vn -0.026011 -0.985836 0.165681
vn -0.026011 -0.985836 0.165681
vn -0.026011 -0.985836 0.165681
vn 0.999809 0.012231 0.015228
vn 0.999463 0.005341 0.032337
vn 0.000000 0.992998 -0.118135
vn 0.000000 0.992998 -0.118135
vn 0.000000 0.992998 -0.118135
vn 0.000000 0.992998 -0.118135
vn -0.999510 -0.007698 -0.030341
vn -0.999497 -0.031707 -0.000522
vn 0.999730 0.021709 -0.008333
vn 0.999730 0.021709 -0.008333
vn 0.056141 -0.448200 -0.892169
vn 0.056141 -0.448200 -0.892169
vn 0.056141 -0.448200 -0.892169
vn 0.056141 -0.448200 -0.892169
vn -0.998761 -0.046464 0.017835
vn -0.998761 -0.046464 0.017835
vn 0.000000 0.442100 0.896966
vn 0.000000 0.442100 0.896966
vn 0.998761 -0.046463 0.017835
vn 0.998761 -0.046463 0.017835
vn -0.056141 -0.448200 -0.892169
vn -0.056141 -0.448200 -0.892169
vn -0.056141 -0.448200 -0.892169
vn -0.056141 -0.448200 -0.892169
vn -0.999730 0.021709 -0.008333
vn -0.999730 0.021709 -0.008333
vn 0.000000 0.442100 0.896966
vn 0.000000 0.442100 0.896966
vn 0.000000 0.000000 -1.000000
vn 0.000000 0.000000 -1.000000
vn 0.000000 0.000000 -1.000000
vn 0.000000 0.000000 -1.000000
vn 1.000000 0.000000 0.000000
vn 1.000000 0.000000 0.000000
vn 1.000000 0.000000 0.000000
vn 1.000000 0.000000 0.000000
vn 0.000000 0.000000 1.000000
vn 0.000000 0.000000 1.000000
vn 0.000000 0.000000 1.000000
vn 0.000000 0.000000 1.000000
vn -1.000000 0.000000 0.000000
vn -1.000000 0.000000 0.000000
vn -1.000000 0.000000 0.000000
vn -1.000000 0.000000 0.000000
vn 0.000000 0.000000 -1.000000
vn 0.000000 0.000000 -1.000000
vn 0.000000 0.000000 -1.000000
vn 0.000000 0.000000 -1.000000
vn 1.000000 0.000000 0.000000
vn 1.000000 0.000000 0.000000
vn 1.000000 0.000000 0.000000
vn 1.000000 0.000000 0.000000
vn 0.000000 0.000000 1.000000
vn 0.000000 0.000000 1.000000
vn 0.000000 0.000000 1.000000
vn 0.000000 0.000000 1.000000
vn -1.000000 0.000000 0.000000
vn -1.000000 0.000000 0.000000
vn -1.000000 0.000000 0.000000
vn -1.000000 0.000000 0.000000
vn 0.000000 0.000000 -1.000000
vn 0.000000 0.000000 -1.000000
vn 0.000000 0.000000 -1.000000
vn 0.000000 0.000000 -1.000000
vn 1.000000 0.000000 0.000000
vn 1.000000 0.000000 0.000000
vn 1.000000 0.000000 0.000000
vn 1.000000 0.000000 0.000000
vn 0.000000 0.000000 1.000000
vn 0.000000 0.000000 1.000000
vn 0.000000 0.000000 1.000000
vn 0.000000 0.000000 1.000000
vn -1.000000 0.000000 0.000000
vn -1.000000 0.000000 0.000000
vn -1.000000 0.000000 0.000000
vn -1.000000 0.000000 0.000000
vn 0.000000 0.000000 -1.000000
vn 0.000000 0.000000 -1.000000
vn 0.000000 0.000000 -1.000000
vn 0.000000 0.000000 -1.000000
vn 1.000000 0.000000 0.000000
vn 1.000000 0.000000 0.000000
vn 1.000000 0.000000 0.000000
vn 1.000000 0.000000 0.000000
vn 0.000000 0.000000 1.000000
vn 0.000000 0.000000 1.000000
vn 0.000000 0.000000 1.000000
vn 0.000000 0.000000 1.000000
vn -1.000000 0.000000 0.000000
vn -1.000000 0.000000 0.000000
vn -1.000000 0.000000 0.000000
vn -1.000000 0.000000 0.000000
s 1
g pCube14
usemtl lambert2SG
f 1/1/1 2/2/2 6/6/3 5/5/4
f 2/2/2 3/3/5 7/7/6 6/6/3
f 3/3/5 4/4/7 8/8/8 7/7/6
f 5/5/4 6/6/3 10/10/9 9/9/10
f 6/6/3 7/7/6 11/11/11 10/10/9
f 7/7/6 8/8/8 12/12/12 11/11/11
s 2
f 10/10/13 11/11/14 15/15/15 14/14/16
f 13/13/17 14/14/16 18/18/18 17/17/19
f 14/14/16 15/15/15 19/19/20 18/18/18
f 15/15/15 16/16/21 20/20/22 19/19/20
s off
f 55/73/23 56/74/24 57/75/25 58/76/26
s 3
f 46/65/27 45/22/28 51/69/29 52/70/30
f 45/22/28 48/23/31 53/71/32 51/69/29
f 48/23/31 50/68/33 54/72/34 53/71/32
s 4
f 23/25/35 24/26/36 28/30/37 27/29/38
f 24/26/36 25/27/39 29/31/40 28/30/37
f 25/27/39 26/28/41 30/32/42 29/31/40
s off
f 79/97/43 80/98/44 81/99/45 82/100/46
s 5
f 28/30/47 29/31/48 33/35/49 32/34/50
s off
f 83/101/51 84/102/52 85/103/53 86/104/54
s 5
f 31/33/55 32/34/50 36/38/56 35/37/57
f 32/34/50 33/35/49 37/39/58 36/38/56
f 33/35/49 34/36/59 38/40/60 37/39/58
s off
f 87/105/61 88/106/62 89/107/63 90/108/64
s 5
f 36/38/56 37/39/58 3/43/65 2/42/66
s off
f 91/109/67 92/110/68 93/111/69 94/112/70
s 6
f 34/46/71 30/45/72 26/48/73 39/49/74
f 38/47/75 34/46/71 39/49/74 40/50/76
f 4/4/77 38/47/75 40/50/76 8/8/78
f 39/49/74 26/48/73 22/51/79 20/52/80
f 40/50/76 39/49/74 20/52/80 16/53/81
f 8/8/78 40/50/76 16/53/81 12/12/82
s 7
f 27/54/83 31/55/84 41/58/85 23/57/86
f 31/55/84 35/56/87 42/59/88 41/58/85
f 35/56/87 1/1/89 5/5/90 42/59/88
f 23/57/86 41/58/85 17/61/91 21/60/92
f 41/58/85 42/59/88 13/62/93 17/61/91
f 42/59/88 5/5/90 9/9/94 13/62/93
s off
f 17/17/95 18/18/96 44/64/97 43/63/98
f 21/21/99 17/17/100 43/63/101 46/65/102
f 18/18/103 19/19/104 47/66/105 44/64/106
f 19/19/107 20/20/108 49/67/109 47/66/110
f 20/20/111 22/24/112 50/68/113 49/67/114
f 24/26/115 23/25/116 52/70/117 51/69/118
f 23/25/119 21/21/120 46/65/121 52/70/122
f 25/27/123 24/26/124 51/69/125 53/71/126
f 22/24/127 26/28/128 54/72/129 50/68/130
f 26/28/131 25/27/132 53/71/133 54/72/134
f 59/77/135 60/78/136 61/79/137 62/80/138
f 47/66/139 48/23/140 57/75/141 56/74/142
f 48/23/143 45/22/144 58/76/145 57/75/146
f 45/22/147 44/64/148 55/73/149 58/76/150
f 44/64/151 47/66/152 60/78/153 59/77/154
f 47/66/155 56/74/156 61/79/157 60/78/158
f 56/74/159 55/73/160 62/80/161 61/79/162
f 55/73/163 44/64/164 59/77/165 62/80/166
f 43/63/167 44/64/168 64/82/169 63/81/170
s 8
f 44/64/171 45/22/172 65/83/173 64/82/174
s 3
f 45/22/28 46/65/27 66/84/175 65/83/176
s 9
f 46/65/177 43/63/178 63/81/179 66/84/180
s off
f 47/66/181 49/67/182 68/86/183 67/85/184
s 10
f 49/67/185 50/68/186 69/87/187 68/86/188
s 3
f 50/68/33 48/23/31 70/88/189 69/87/190
s 11
f 48/23/191 47/66/192 67/85/193 70/88/194
s off
f 63/81/195 64/82/196 72/90/197 71/89/198
s 8
f 64/82/174 65/83/173 73/91/199 72/90/200
s off
f 65/83/201 66/84/202 74/92/203 73/91/204
s 9
f 66/84/180 63/81/179 71/89/205 74/92/206
s off
f 67/85/207 68/86/208 76/94/209 75/93/210
s 10
f 68/86/188 69/87/187 77/95/211 76/94/212
s off
f 69/87/213 70/88/214 78/96/215 77/95/216
s 11
f 70/88/194 67/85/193 75/93/217 78/96/218
s 10
f 12/12/219 16/53/220 76/94/212 77/95/211
s off
f 16/16/221 15/15/222 75/93/223 76/94/224
s 11
f 15/15/225 11/11/226 78/96/218 75/93/217
s 1
f 11/11/11 12/12/12 77/95/227 78/96/228
s 8
f 10/10/229 14/14/230 72/90/200 73/91/199
s off
f 14/14/231 13/13/232 71/89/233 72/90/234
s 9
f 13/62/235 9/9/236 74/92/206 71/89/205
s 1
f 9/9/10 10/10/9 73/91/237 74/92/238
s off
f 27/29/239 28/30/240 80/98/241 79/97/242
f 28/30/243 32/34/244 81/99/245 80/98/246
f 32/34/247 31/33/248 82/100/249 81/99/250
f 31/33/251 27/29/252 79/97/253 82/100/254
f 29/31/255 30/32/256 84/102/257 83/101/258
f 30/32/259 34/36/260 85/103/261 84/102/262
f 34/36/263 33/35/264 86/104/265 85/103/266
f 33/35/267 29/31/268 83/101/269 86/104/270
f 35/37/271 36/38/272 88/106/273 87/105/274
f 36/38/275 2/42/276 89/107/277 88/106/278
f 2/42/279 1/41/280 90/108/281 89/107/282
f 1/41/283 35/37/284 87/105/285 90/108/286
f 37/39/287 38/40/288 92/110/289 91/109/290
f 38/40/291 4/44/292 93/111/293 92/110/294
f 4/44/295 3/43/296 94/112/297 93/111/298
f 3/43/299 37/39/300 91/109/301 94/112/302
